<?xml version="1.0" encoding="utf-8"?>
<!-- Generator: Adobe Illustrator 23.0.0, SVG Export Plug-In . SVG Version: 6.00 Build 0)  -->
<svg version="1.1" id="Layer_1" xmlns="http://www.w3.org/2000/svg" xmlns:xlink="http://www.w3.org/1999/xlink" x="0px" y="0px"
	 viewBox="0 0 270 34" style="enable-background:new 0 0 270 34;" xml:space="preserve">
<style type="text/css">
	.st0{fill:#F13024;}
	.st1{fill:#FFFFFF;}
</style>
<circle class="st0" cx="239.3" cy="30.3" r="3.3"/>
<g>
	<path class="st1" d="M198.6,33.1c-2.3,0-4.4,0-6.7,0c-0.3,0-0.7-0.6-1-0.9c-1.4-2.8-2.6-5.5-4-8.4c-2.5,2.5-4.4,5.2-3.3,9.2
		c-2.2,0-4.2,0-6.3,0c0-10.9,0-21.9,0-32.9c2,0,4,0,6.1,0c0,6.4,0,12.8,0,19.2c0.1,0,0.2,0.1,0.3,0.1c1.4-1.9,2.6-3.6,4-5.5
		c1.1-1.4,1.9-3.4,3.3-4.2c1.4-0.8,3.4-0.2,5.1-0.2c0.3,0,0.7,0,1.4,0c-0.6,0.9-1.2,1.7-1.7,2.3c-1.4,1.8-2.6,3.6-4,5.4
		c-0.5,0.8-0.6,1.2-0.2,2.1c2.3,4.3,4.4,8.7,6.8,13C198.3,32.6,198.4,32.8,198.6,33.1z"/>
	<path class="st1" d="M165.8,19.1c0.1-2.9-1.1-4.3-3.5-4.2c-1.8,0.1-3.5,0.7-5.7,1.1c-0.8-0.8-2.1-2-3.6-3.5
		c1.2-0.8,2.2-1.7,3.4-2.2c3.2-1.4,6.6-1.5,9.9-0.4c3.2,1,5.2,3.8,5.2,7.2c0.1,5.3,0,10.6,0,16c-1.9,0-3.7,0-5.6,0
		c0-0.6-0.1-1-0.1-1.7c-2.1,1.8-4.4,2.2-7,2.1c-4.9-0.1-7.4-3.4-6.8-8.4c0.5-3.8,2.9-5.7,7.1-5.9C161.3,19.1,163.6,19.1,165.8,19.1z
		 M165.7,23.9c-1.6,0-3.3,0-4.9,0c-0.5,0-1,0-1.5,0.1c-1.1,0.2-1.7,0.9-1.7,2c0,1.1,0.5,1.9,1.5,2c1.3,0.2,2.5,0.2,3.8,0.1
		C165.7,27.8,166.2,26.9,165.7,23.9z"/>
	<path class="st1" d="M127.4,30.6c1.6-2,2.9-3.5,4.1-5.2c2.5,1.7,5.3,2.4,8.1,2.2c0.8-0.1,1.7-0.3,2.4-0.7c0.3-0.1,0.7-0.8,0.7-1.2
		c0-0.4-0.4-1-0.7-1.2c-0.8-0.3-1.7-0.4-2.5-0.7c-1.8-0.3-3.6-0.4-5.4-0.8c-3.2-0.7-4.8-2.2-5.1-4.9c-0.4-3.9,0.7-6.5,3.7-7.9
		c3.2-1.5,6.6-1.4,9.8-0.6c1.9,0.4,3.8,1.4,5.9,2.3c-1.5,1.8-2.6,3.3-3.9,4.9c-2.4-1.3-5-2.1-7.8-1.7c-1,0.1-2.2,0.1-2.3,1.4
		c0,1.3,1.3,1.3,2.2,1.4c2,0.3,4,0.6,6,0.9c3.1,0.6,5,2.2,5.4,4.9c0.6,3.9-0.5,6.7-3.3,8.3c-3.5,1.9-7.1,1.9-10.8,1
		C132,32.4,129.9,31.5,127.4,30.6z"/>
	<path class="st1" d="M232.1,33.1c-2,0-4,0-6.1,0c0-0.6,0-1,0-1.5c0-4.2,0-8.3,0-12.5c0-2.5-1.2-3.8-3.6-3.8c-2.3,0-3.5,1.2-3.5,3.8
		c0,4.6,0,9.3,0,14c-2,0-4,0-6.1,0c0-7.7,0-15.6,0-23.4c1.9,0,3.9,0,6,0c0,0.8,0,1.5,0,2.4c0.2-0.1,0.3,0,0.4-0.1
		c2.1-3,5.1-3.3,8.1-2.3c3.2,1.1,4.5,3.9,4.6,7.1C232.2,22.1,232.1,27.5,232.1,33.1z"/>
	<path class="st1" d="M54.2,30.8c0,0.8,0,1.4,0,2.2c-1.6,0-3.1,0-4.5,0c0-10.9,0-21.9,0-32.9c1.3,0,2.5-0.1,3.8,0
		c0.3,0,0.6,0.8,0.6,1.1c0.1,3.5,0,7.1,0,10.7c0.2,0,0.3,0,0.4-0.1C56.8,9,59.8,8.5,63,9.6c3.3,1.1,4.5,4,4.8,7.3
		c0.2,3.2,0.1,6.4-0.1,9.6c-0.3,3.1-1.9,5.5-4.9,6.4c-3.1,1-5.9,0.8-8.1-2C54.5,30.9,54.4,30.9,54.2,30.8z M54.1,21.2
		C54.2,21.2,54.2,21.2,54.1,21.2c0,1.3-0.1,2.8,0.1,4.1c0.2,2.5,1.8,3.9,4.2,3.9s4.3-1.3,4.5-3.8c0.2-2.8,0.2-5.5,0-8.3
		c-0.2-2.5-2.1-3.9-4.9-3.8c-2.4,0.1-3.8,1.5-4,4.1C54.1,18.7,54.1,20,54.1,21.2z"/>
	<path class="st1" d="M25.4,12.7c1.5-1.8,3.2-2.7,5.2-3.1C33,9,35.4,9,37.7,9.9c2.6,1,4.6,2.9,4.8,5.9c0.3,5.7,0.1,11.6,0.1,17.5
		c-1.4,0-2.7,0-4.1,0c0-0.4-0.1-0.9-0.1-1.4c-2.6,2.1-5.6,2.1-8.6,1.5c-3.7-0.7-5.5-3.1-5.5-7.2c0-3.9,1.8-6.1,5.5-6.6
		c1.5-0.2,3-0.2,4.5-0.2c1.3,0,2.6,0,3.9,0c0.5-3.5-1.2-5.7-4.4-5.6c-1.4,0.1-2.7,0.4-4.1,1c-0.8,0.3-1.4,0.3-2-0.1
		C26.9,13.6,26.2,13.2,25.4,12.7z M38.4,22.9c-2.3,0-4.5,0-6.8,0c-1.8,0-2.7,0.9-3,2.5c-0.2,1.9,0.4,3.3,2.2,3.5c2,0.2,4,0.1,6-0.1
		c0.5-0.1,1.3-1,1.4-1.5C38.5,26,38.4,24.5,38.4,22.9z"/>
	<path class="st1" d="M92.7,23c-5.2,0-9.8,0-14.6,0c-0.6,2.7,1.4,5.1,3.4,5.6c2.3,0.6,4.4,0.2,6.3-1.2c0.8-0.6,1.3-0.6,1.9,0.2
		c0.6,0.8,1.4,1.4,2.1,2.2c-3.5,3.3-7.4,4.3-11.8,3.1c-3.6-1-5.9-3.5-6.3-7.4c-0.3-2.8-0.3-5.6,0-8.4c0.5-4.5,3.8-7.6,8-8
		c5.1-0.4,8.3,1.7,9.7,6.4C92.2,18,92.4,20.4,92.7,23z M87.9,19.3c-0.2-4-2.1-6-5.2-5.9c-2.9,0.1-4.9,2.5-4.6,5.9
		C81.4,19.3,84.6,19.3,87.9,19.3z"/>
	<path class="st1" d="M19.7,12.2c-1,1.2-1.8,2.3-2.7,3.4c-0.4-0.2-0.8-0.4-1.2-0.7c-2-1.1-4.1-1.8-6.3-1.5c-0.7,0.1-1.5,0.2-2.2,0.6
		c-1.2,0.6-1.7,1.5-1.5,2.9c0.1,1.2,1.2,1.5,2,1.7c1.8,0.2,3.7,0.4,5.6,0.6c0.4,0,0.7,0.1,1.2,0.2c3.4,0.8,5.1,2.5,5.3,5.7
		c0.2,4-1.2,6.6-4.4,7.6c-5,1.5-9.7,1.2-14.2-1.9c-0.4-0.3-0.7-0.7-1.2-1c1-1.2,1.8-2.3,2.5-3.1c2.2,0.9,4.1,1.9,6.2,2.3
		c1.5,0.3,3.2,0,4.6-0.3s2-1.5,1.9-3c-0.1-1.5-1.2-2-2.2-2.1c-2.1-0.3-4.3-0.4-6.4-0.8c-3.4-0.4-5-2.1-5.3-5.2C1,14,2.4,11,5.5,10
		C10.4,8.3,15.1,9,19.7,12.2z"/>
	<path class="st1" d="M103.1,33.1c-1.6,0-3.1,0-4.5,0c0-7.9,0-15.6,0-23.4c1.5,0,2.9,0,4.4,0c0,0.8,0.1,1.7,0.2,2.8
		c1.8-2.2,3.8-3.3,6.4-3.2c1.7,0.1,3.2,0.7,4.6,1.9c-1.1,1.4-2,2.8-2.7,3.8c-1.5-0.4-2.7-1-3.9-1.1c-2.9-0.1-4.3,1.4-4.4,4.5
		c0,4.4,0,8.8,0,13.2C103.1,31.9,103.1,32.4,103.1,33.1z"/>
	<path class="st1" d="M207.1,9.6c0,7.9,0,15.6,0,23.4c-2,0-3.9,0-6,0c0-7.7,0-15.6,0-23.4C203.1,9.6,205,9.6,207.1,9.6z"/>
	<path class="st1" d="M207.1,6.4c-2.1,0-4,0-6,0c0-2.1,0-4.1,0-6.3c2,0,3.9,0,6,0C207.1,2.1,207.1,4.3,207.1,6.4z"/>
</g>
</svg>
