<?xml version="1.0" encoding="utf-8"?>
<!-- Generator: Adobe Illustrator 23.0.0, SVG Export Plug-In . SVG Version: 6.00 Build 0)  -->
<svg version="1.1" id="Layer_1" xmlns="http://www.w3.org/2000/svg" xmlns:xlink="http://www.w3.org/1999/xlink" x="0px" y="0px"
	 viewBox="0 0 270 34" style="enable-background:new 0 0 270 34;" xml:space="preserve">
<style type="text/css">
	.st0{fill:#F13024;}
	.st1{fill:#FFFFFF;}
</style>
<circle class="st0" cx="262" cy="29.4" r="3.3"/>
<g>
	<path class="st1" d="M220.7,33.3c-2.5,0-4.8,0-7.2,0c-0.3,0-0.8-0.6-1.1-0.9c-1.5-2.8-2.8-5.6-4.3-8.5c-2.7,2.5-4.8,5.2-3.6,9.3
		c-2.4,0-4.5,0-6.8,0c0-11,0-22.1,0-33.2c2.2,0,4.3,0,6.6,0c0,6.5,0,12.9,0,19.4c0.1,0,0.2,0.1,0.3,0.1c1.5-1.9,2.8-3.6,4.3-5.6
		c1.2-1.4,2.1-3.4,3.6-4.2s3.7-0.2,5.5-0.2c0.3,0,0.8,0,1.5,0c-0.6,0.9-1.3,1.7-1.8,2.3c-1.5,1.8-2.8,3.6-4.3,5.4
		c-0.5,0.8-0.6,1.2-0.2,2.1c2.5,4.3,4.8,8.8,7.3,13.1C220.4,32.8,220.5,33,220.7,33.3z"/>
	<path class="st1" d="M185.3,19.2c0.1-2.9-1.2-4.3-3.8-4.2c-1.9,0.1-3.8,0.7-6.2,1.1c-0.9-0.8-2.3-2-3.9-3.5
		c1.3-0.8,2.4-1.7,3.7-2.2c3.5-1.4,7.1-1.5,10.7-0.4c3.5,1,5.6,3.8,5.6,7.3c0.1,5.3,0,10.7,0,16.1c-2.1,0-4,0-6,0
		c0-0.6-0.1-1-0.1-1.7c-2.3,1.8-4.8,2.2-7.6,2.1c-5.3-0.1-8-3.4-7.3-8.5c0.5-3.8,3.1-5.8,7.7-6C180.4,19.2,182.9,19.2,185.3,19.2z
		 M185.2,24.1c-1.7,0-3.6,0-5.3,0c-0.5,0-1.1,0-1.6,0.1c-1.2,0.2-1.8,0.9-1.8,2s0.5,1.9,1.6,2c1.4,0.2,2.7,0.2,4.1,0.1
		C185.2,28,185.7,27.1,185.2,24.1z"/>
	<path class="st1" d="M143.8,30.8c1.7-2,3.1-3.5,4.4-5.2c2.7,1.7,5.7,2.4,8.7,2.2c0.9-0.1,1.8-0.3,2.6-0.7c0.3-0.1,0.8-0.8,0.8-1.2
		c0-0.4-0.4-1-0.8-1.2c-0.9-0.3-1.8-0.4-2.7-0.7c-1.9-0.3-3.9-0.4-5.8-0.8c-3.5-0.7-5.2-2.2-5.5-4.9c-0.4-3.9,0.8-6.6,4-8
		c3.5-1.5,7.1-1.4,10.6-0.6c2.1,0.4,4.1,1.4,6.4,2.3c-1.6,1.8-2.8,3.3-4.2,4.9c-2.6-1.3-5.4-2.1-8.4-1.7c-1.1,0.1-2.4,0.1-2.5,1.4
		c0,1.3,1.4,1.3,2.4,1.4c2.2,0.3,4.3,0.6,6.5,0.9c3.3,0.6,5.4,2.2,5.8,4.9c0.6,3.9-0.5,6.8-3.6,8.4c-3.8,1.9-7.7,1.9-11.7,1
		C148.8,32.6,146.5,31.7,143.8,30.8z"/>
	<path class="st1" d="M256.9,33.3c-2.2,0-4.3,0-6.6,0c0-0.6,0-1,0-1.5c0-4.2,0-8.4,0-12.6c0-2.5-1.3-3.8-3.9-3.8
		c-2.5,0-3.8,1.2-3.8,3.8c0,4.6,0,9.4,0,14.1c-2.2,0-4.3,0-6.6,0c0-7.8,0-15.7,0-23.6c2.1,0,4.2,0,6.5,0c0,0.8,0,1.5,0,2.4
		c0.2-0.1,0.3,0,0.4-0.1c2.3-3,5.5-3.3,8.7-2.3c3.5,1.1,4.9,3.9,5,7.2C257,22.2,256.9,27.7,256.9,33.3z"/>
	<path class="st1" d="M64.8,31c0,0.8,0,1.4,0,2.2c-1.7,0-3.3,0-4.9,0c0-11,0-22.1,0-33.2c1.4,0,2.7-0.1,4.1,0c0.3,0,0.6,0.8,0.6,1.1
		c0.1,3.5,0,7.2,0,10.8c0.2,0,0.3,0,0.4-0.1c2.5-2.8,5.7-3.3,9.2-2.2c3.6,1.1,4.9,4,5.2,7.4c0.2,3.2,0.1,6.5-0.1,9.7
		c-0.3,3.1-2.1,5.6-5.3,6.5c-3.3,1-6.4,0.8-8.7-2C65.1,31.1,65,31.1,64.8,31z M64.6,21.3C64.8,21.3,64.8,21.3,64.6,21.3
		c0,1.3-0.1,2.8,0.1,4.1c0.2,2.5,1.9,3.9,4.5,3.9c2.6,0,4.6-1.3,4.9-3.8c0.2-2.8,0.2-5.6,0-8.4c-0.2-2.5-2.3-3.9-5.3-3.8
		c-2.6,0.1-4.1,1.5-4.3,4.1C64.6,18.8,64.6,20.1,64.6,21.3z"/>
	<path class="st1" d="M33.6,12.8c1.6-1.8,3.5-2.7,5.6-3.1C41.9,9,44.4,9,46.9,9.9c2.8,1,5,2.9,5.2,6c0.3,5.8,0.1,11.7,0.1,17.7
		c-1.5,0-2.9,0-4.4,0c0-0.4-0.1-0.9-0.1-1.4c-2.8,2.1-6,2.1-9.3,1.5c-4-0.7-5.9-3.1-5.9-7.3c0-3.9,1.9-6.2,5.9-6.7
		c1.6-0.2,3.2-0.2,4.9-0.2c1.4,0,2.8,0,4.2,0c0.5-3.5-1.3-5.8-4.8-5.7c-1.5,0.1-2.9,0.4-4.4,1c-0.9,0.3-1.5,0.3-2.2-0.1
		C35.3,13.7,34.5,13.3,33.6,12.8z M47.7,23.1c-2.5,0-4.9,0-7.3,0c-1.9,0-2.9,0.9-3.2,2.5c-0.2,1.9,0.4,3.3,2.4,3.5
		c2.2,0.2,4.3,0.1,6.5-0.1c0.5-0.1,1.4-1,1.5-1.5C47.8,26.2,47.7,24.7,47.7,23.1z"/>
	<path class="st1" d="M106.3,23.2c-5.6,0-10.6,0-15.8,0c-0.6,2.7,1.5,5.1,3.7,5.7c2.5,0.6,4.8,0.2,6.8-1.2c0.9-0.6,1.4-0.6,2.1,0.2
		c0.6,0.8,1.5,1.4,2.3,2.2c-3.8,3.3-8,4.3-12.7,3.1c-3.9-1-6.4-3.5-6.8-7.5c-0.3-2.8-0.3-5.7,0-8.5c0.5-4.5,4.1-7.7,8.6-8.1
		c5.5-0.4,9,1.7,10.5,6.5C105.8,18.1,106,20.5,106.3,23.2z M101.2,19.4c-0.2-4-2.3-6.1-5.6-6c-3.1,0.1-5.3,2.5-5,6
		C94.1,19.4,97.6,19.4,101.2,19.4z"/>
	<path class="st1" d="M27.5,12.3c-1.1,1.2-1.9,2.3-2.9,3.4c-0.4-0.2-0.9-0.4-1.3-0.7c-2.2-1.1-4.4-1.8-6.8-1.5
		c-0.8,0.1-1.6,0.2-2.4,0.6c-1.3,0.6-1.8,1.5-1.6,2.9c0.1,1.2,1.3,1.5,2.2,1.7c1.9,0.2,4,0.4,6,0.6c0.4,0,0.8,0.1,1.3,0.2
		c3.7,0.8,5.5,2.5,5.7,5.8c0.2,4-1.3,6.7-4.8,7.7c-5.4,1.5-10.5,1.2-15.3-1.9c-0.4-0.3-0.8-0.7-1.3-1c1.1-1.2,1.9-2.3,2.7-3.1
		c2.4,0.9,4.4,1.9,6.7,2.3c1.6,0.3,3.5,0,5-0.3c1.5-0.3,2.2-1.5,2.1-3s-1.3-2-2.4-2.1c-2.3-0.3-4.6-0.4-6.9-0.8
		c-3.7-0.4-5.4-2.1-5.7-5.2C7.3,14.1,8.8,11,12.1,10C17.4,8.3,22.5,9,27.5,12.3z"/>
	<path class="st1" d="M117.6,33.3c-1.7,0-3.3,0-4.9,0c0-8,0-15.7,0-23.6c1.6,0,3.1,0,4.8,0c0,0.8,0.1,1.7,0.2,2.8
		c1.9-2.2,4.1-3.3,6.9-3.2c1.8,0.1,3.5,0.7,5,1.9c-1.2,1.4-2.2,2.8-2.9,3.8c-1.6-0.4-2.9-1-4.2-1.1c-3.1-0.1-4.6,1.4-4.8,4.5
		c0,4.4,0,8.9,0,13.3C117.6,32.1,117.6,32.6,117.6,33.3z"/>
	<path class="st1" d="M229.9,9.6c0,8,0,15.7,0,23.6c-2.2,0-4.2,0-6.5,0c0-7.8,0-15.7,0-23.6C225.6,9.6,227.6,9.6,229.9,9.6z"/>
	<path class="st1" d="M229.9,6.4c-2.3,0-4.3,0-6.5,0c0-2.1,0-4.1,0-6.4c2.2,0,4.2,0,6.5,0C229.9,2.1,229.9,4.3,229.9,6.4z"/>
</g>
</svg>
